<?xml version="1.0" standalone="no"?>
<!DOCTYPE svg PUBLIC "-//W3C//DTD SVG 20010904//EN"
 "http://www.w3.org/TR/2001/REC-SVG-20010904/DTD/svg10.dtd">
<svg version="1.0" xmlns="http://www.w3.org/2000/svg"
 width="400.000000pt" height="400.000000pt" viewBox="0 0 400.000000 400.000000"
 preserveAspectRatio="xMidYMid meet">
<metadata>
Created by potrace 1.11, written by Peter Selinger 2001-2013
</metadata>
<g transform="translate(0.000000,400.000000) scale(0.100000,-0.100000)"
fill="#000000" stroke="none">
<path d="M2607 3672 c-18 -20 -22 -42 -8 -42 8 0 41 43 41 55 0 11 -18 4 -33
-13z"/>
<path d="M2644 3665 c-9 -14 -13 -29 -9 -33 7 -7 45 34 45 49 0 18 -20 9 -36
-16z"/>
<path d="M2848 3622 c-63 -2 -78 -6 -78 -19 0 -13 12 -15 80 -11 45 3 83 1 85
-3 3 -4 -2 -24 -11 -45 -27 -64 -104 -228 -114 -244 -20 -30 -33 -60 -28 -65
7 -8 139 -13 176 -7 18 2 32 10 32 18 0 11 -19 14 -80 14 l-81 0 37 73 c20 39
44 88 55 109 18 34 59 151 59 168 0 11 -45 15 -132 12z"/>
<path d="M520 3613 l-25 -4 0 -187 0 -186 25 -7 c81 -23 168 9 200 72 11 21
20 49 20 62 0 31 -56 87 -86 87 -29 0 -30 11 -4 35 32 29 21 108 -17 119 -32
9 -87 14 -113 9z m111 -39 c13 -8 10 -57 -4 -75 -12 -17 -76 -59 -89 -59 -5 0
-4 137 1 147 2 4 83 -7 92 -13z m35 -160 c44 -21 53 -54 25 -93 -25 -35 -80
-71 -109 -71 -45 0 -52 10 -52 69 0 79 19 103 88 110 8 0 29 -6 48 -15z"/>
<path d="M798 3613 c-10 -2 -18 -11 -18 -20 0 -13 9 -15 50 -11 l51 5 -3 -168
-3 -169 -48 0 c-35 0 -47 -4 -45 -12 3 -9 33 -14 94 -16 110 -3 154 4 154 24
0 12 -10 15 -47 14 -27 -2 -54 -2 -62 -1 -11 1 -13 27 -8 149 4 81 7 155 7
165 0 14 9 17 56 17 40 0 55 3 52 13 -3 8 -35 12 -109 13 -57 1 -112 0 -121
-3z"/>
<path d="M1061 3426 l1 -194 59 -4 c71 -4 104 3 104 22 0 12 -13 14 -62 11
l-63 -3 0 165 c0 172 -3 197 -26 197 -10 0 -13 -38 -13 -194z"/>
<path d="M1260 3425 l0 -195 58 -1 c95 -2 120 4 103 24 -7 10 -28 12 -66 9
l-55 -4 -1 156 c-1 86 -3 161 -4 166 -1 6 -3 17 -4 25 0 8 -8 15 -16 15 -13 0
-15 -28 -15 -195z"/>
<path d="M1467 3613 c-4 -3 -7 -91 -7 -195 0 -143 3 -188 13 -189 41 -4 178 0
186 6 28 17 4 25 -74 25 l-85 0 0 60 c0 33 0 63 0 67 0 4 17 9 37 10 87 7 123
15 123 27 0 10 -19 12 -82 9 l-83 -5 3 81 4 81 79 0 c74 0 100 10 63 24 -21 8
-169 8 -177 -1z"/>
<path d="M1716 3604 c-14 -14 -16 -41 -14 -197 3 -154 5 -182 18 -182 13 0 15
24 14 157 -1 87 2 155 7 153 4 -3 19 -36 34 -75 15 -38 37 -85 50 -104 13 -19
26 -43 29 -53 3 -11 22 -35 42 -54 l35 -34 18 21 c15 18 17 38 14 125 -2 57
-5 109 -8 116 -2 6 0 25 5 42 4 16 5 32 2 36 -3 3 -6 18 -7 33 0 17 -5 27 -15
27 -13 0 -15 -26 -18 -167 -1 -93 -6 -168 -10 -168 -10 0 -131 245 -146 297
-11 35 -31 46 -50 27z"/>
<path d="M2285 3600 c-4 -14 10 -55 45 -125 38 -76 51 -115 50 -142 -4 -83 -1
-103 18 -103 15 0 17 11 18 88 1 62 6 97 17 118 29 51 67 146 67 166 0 38 -22
12 -53 -62 -36 -84 -45 -100 -56 -100 -5 0 -27 41 -50 90 -23 50 -44 90 -46
90 -2 0 -7 -9 -10 -20z"/>
<path d="M2533 3462 c4 -87 11 -172 17 -188 15 -42 45 -57 95 -46 73 15 93 69
96 257 2 126 1 137 -13 133 -9 -3 -15 -44 -18 -139 -6 -161 -24 -212 -76 -217
-53 -5 -59 12 -62 192 -4 155 -5 162 -24 163 -20 2 -21 -1 -15 -155z"/>
<path d="M3029 3618 c0 -2 -2 -90 -4 -195 -2 -137 1 -193 9 -194 13 -1 141 -1
174 0 12 1 22 7 22 16 0 12 -16 15 -85 15 l-85 0 0 70 0 70 49 0 c66 0 111 10
111 25 0 9 -20 11 -80 8 l-80 -5 0 81 0 81 80 0 c75 0 101 10 64 24 -15 6
-173 9 -175 4z"/>
<path d="M2008 3599 c-34 -19 -19 -31 32 -27 l50 3 0 -173 c0 -160 1 -173 18
-170 15 3 17 21 20 176 l2 173 53 -1 c70 -2 71 -2 58 14 -15 17 -205 21 -233
5z"/>
<path d="M3258 3603 c-10 -2 -18 -11 -18 -20 0 -12 10 -14 51 -11 l51 3 -2
-155 c-3 -193 -3 -190 15 -190 8 0 16 8 17 18 3 34 7 149 7 240 l1 92 56 0
c40 0 55 3 52 13 -3 8 -35 12 -109 13 -57 1 -112 0 -121 -3z"/>
<path d="M2073 2249 c-39 -15 -40 -69 -1 -90 40 -22 88 23 67 63 -14 25 -41
37 -66 27z"/>
<path d="M2338 2226 c-14 -31 -5 -53 27 -68 21 -9 28 -8 45 7 39 35 20 85 -32
85 -20 0 -32 -7 -40 -24z"/>
<path d="M2185 2120 c-84 -26 -99 -90 -35 -152 23 -21 48 -38 57 -38 13 0 15
-8 10 -45 -2 -25 -13 -55 -22 -65 -21 -24 -69 -26 -105 -5 -30 17 -40 18 -40
5 0 -15 60 -42 96 -43 35 -1 71 24 84 58 6 18 9 17 23 -12 27 -52 87 -61 157
-23 15 8 19 15 12 22 -7 7 -18 4 -35 -7 -58 -37 -119 -2 -133 78 -5 30 -3 37
10 37 23 0 93 66 100 95 4 14 2 34 -4 45 -22 41 -116 68 -175 50z"/>
<path d="M843 1215 c0 -22 2 -30 4 -17 2 12 2 30 0 40 -3 9 -5 -1 -4 -23z"/>
</g>
</svg>
